<svg width="120" height="29" viewBox="0 0 120 29" fill="none" xmlns="http://www.w3.org/2000/svg">
<path fill-rule="evenodd" clip-rule="evenodd" d="M24.1987 0.09375H4.66998C2.13372 0.09375 0.0688477 2.15072 0.0688477 4.6785V24.1311C0.0688477 26.6589 2.13372 28.7159 4.66998 28.7159H24.1987C26.7362 28.7159 28.7998 26.6589 28.7998 24.1311V4.6785C28.7998 2.15072 26.7362 0.09375 24.1987 0.09375ZM6.32655 18.409C5.05096 18.409 3.97486 17.3264 3.97486 16.0446V12.7671C3.97486 11.5087 5.10213 10.4028 6.38835 10.4028H9.39721C9.79571 10.4452 10.1004 10.7488 10.132 11.1288V11.1686C10.1358 11.2124 10.1332 11.2281 10.132 11.2425C10.0991 11.6539 9.79314 11.9634 9.38741 11.9889H6.38835C5.95833 11.9889 5.56622 12.3604 5.56622 12.7671V16.0446C5.56622 16.4658 5.91483 16.8228 6.32655 16.8228L9.29877 16.824V16.8252H9.4164C9.81489 16.8651 10.1188 17.1686 10.1503 17.5474L10.1516 17.6598C10.1175 18.0691 9.80508 18.3773 9.40702 18.4054L9.36651 18.4088L6.32655 18.409ZM24.2021 24.8257L24.0286 24.8269L19.9474 24.8257C19.5456 24.7977 19.237 24.4504 19.237 24.0343C19.237 23.6353 19.5332 23.2854 19.9108 23.2417L19.9279 23.2405L19.985 23.2432L20.0229 23.2421L24.2144 23.2459C24.5835 23.2884 24.8618 23.592 24.8908 23.9694L24.892 24.0806C24.8617 24.4899 24.5714 24.7994 24.2019 24.8261L24.2021 24.8257ZM24.1475 18.4056L19.2089 18.4068C18.83 18.4068 18.4605 18.7867 18.4499 19.1871L18.4518 22.4103C18.4545 22.4324 18.4557 22.4625 18.4557 22.4927L18.4545 22.5292C18.4375 23.7812 17.4342 24.7929 16.1736 24.8269L16.1139 24.8296L16.0594 24.8269H12.7884C11.4791 24.8269 10.4149 23.8092 10.4149 22.5581V22.1454C10.4124 22.1407 10.4111 22.125 10.4111 22.1105C10.4111 21.7038 10.7197 21.365 11.128 21.3213L11.2784 21.3201L11.2848 21.3213C11.6722 21.3612 11.9756 21.6652 12.0072 22.0439V22.1564L12.0063 22.4213C12.0063 22.8497 12.3788 23.2416 12.7884 23.2416H16.0777C16.4881 23.2416 16.838 22.9151 16.8572 22.5207L16.8657 19.0211C16.9667 17.8064 18.0185 16.8227 19.2089 16.8227L24.1573 16.8216C24.5558 16.8627 24.8592 17.1654 24.8908 17.5441L24.892 17.6579C24.8579 18.068 24.546 18.3776 24.1475 18.4056ZM24.8946 9.66575C24.8946 10.9351 23.7976 12.0084 22.5007 12.0084H19.2528C18.0403 12.0084 16.9701 11.0175 16.867 9.80033L16.8585 9.62241V6.31896C16.8538 5.93432 16.4638 5.57135 16.0568 5.57135H12.8089C12.3741 5.57135 12.0063 5.94622 12.0063 6.39156V9.10319C11.9735 9.51205 11.6598 9.82068 11.2613 9.84491H11.174C10.7406 9.81944 10.4175 9.4819 10.4162 9.06202L10.4149 6.39156C10.4149 5.08736 11.5107 3.98604 12.8089 3.98604H16.0568C17.228 3.98604 18.2483 4.85723 18.423 5.98611L18.4473 6.09863L18.45 6.30582V9.61392C18.4547 10.0517 18.8229 10.4223 19.2529 10.4223H22.5009C22.9198 10.4223 23.3025 10.0614 23.3025 9.66575V4.66237L23.3448 4.5248C23.4406 4.22803 23.6998 4.01407 24.0143 3.98139L24.1622 3.98023C24.5594 4.02267 24.862 4.32622 24.8948 4.70365L24.8946 9.66575Z" fill="white"/>
<path fill-rule="evenodd" clip-rule="evenodd" d="M117.92 16.4176V16.4125H115.558V13.0823C115.558 13.067 115.56 13.0521 115.56 13.0369C115.56 13.0216 115.558 13.0063 115.558 12.9914V12.8267H115.544C115.44 12.0655 114.778 11.4783 113.976 11.4783C113.101 11.4783 112.391 12.1759 112.391 13.0369C112.391 13.1107 112.398 13.1833 112.408 13.2547V16.4125H107.712L114.441 5.39066L114.468 5.34608C114.762 4.61712 114.147 4.3488 114.147 4.3488C112.989 3.63302 111.848 4.14205 111.499 4.46978C111.416 4.5475 111.329 4.64813 111.243 4.75806H111.199L110.919 5.2115C110.733 5.49551 110.596 5.73708 110.596 5.73708L103.971 16.4966V16.5144C103.811 16.7899 103.579 17.1899 103.439 17.4302C103.209 17.8237 102.947 18.9547 103.971 19.4103H104.847H112.408V23.4049C112.404 23.4435 112.401 23.4822 112.401 23.5216C112.401 24.2107 113.107 24.769 113.979 24.769C114.809 24.769 115.488 24.2625 115.552 23.6197L115.558 23.6155V19.4103H117.92V19.4056C118.746 19.3542 119.401 18.7059 119.401 17.9116C119.401 17.1173 118.746 16.469 117.92 16.4176Z" fill="white"/>
<path fill-rule="evenodd" clip-rule="evenodd" d="M45.0409 21.0524C44.8052 20.8019 44.4864 20.6749 44.1663 20.6749C43.888 20.6749 43.6089 20.7709 43.383 20.9658C42.4352 21.783 41.163 22.1978 39.6015 22.1978C38.1456 22.1978 36.9877 21.7317 36.0607 20.7734C35.1435 19.825 34.6786 18.5789 34.6786 17.0696C34.6786 15.5608 35.1431 14.3198 36.0599 13.3807C36.9868 12.431 38.1452 11.9695 39.6015 11.9695C40.9652 11.9695 42.1679 12.3418 43.1754 13.0772C43.3885 13.2321 43.6366 13.3077 43.8821 13.3077C44.2383 13.3077 44.5908 13.1493 44.8265 12.8487L44.9944 12.6348C45.3959 12.1223 45.3119 11.384 44.8047 10.9743C43.4218 9.85689 41.6736 9.29053 39.6048 9.29053L39.5171 9.29091C37.2992 9.29091 35.4466 10.0254 34.0107 11.4753C32.5762 12.9234 31.8491 14.8055 31.8491 17.0696C31.8491 19.3516 32.5715 21.2387 33.9967 22.6775C35.4222 24.118 37.2796 24.8483 39.5171 24.8483C41.8104 24.8483 43.686 24.1715 45.0916 22.8363C45.5676 22.385 45.5889 21.6361 45.1402 21.1581L45.0409 21.0524Z" fill="white"/>
<path fill-rule="evenodd" clip-rule="evenodd" d="M60.4288 22.8324C60.4228 20.8625 60.4066 15.3874 60.4057 14.647C60.3861 13.0341 59.83 11.4455 58.5241 10.4265C57.2136 9.40423 55.4816 9.17072 53.8646 9.23228C52.9343 9.26837 51.9992 9.40551 51.1196 9.71883C50.6776 9.87589 50.1964 10.0648 49.7762 10.2741C49.3705 10.4783 48.9042 10.6915 48.5957 11.0349C48.1086 11.5796 48.2543 12.4462 48.8229 12.8766C49.645 13.4999 50.5174 12.7111 51.2824 12.3829C52.7642 11.749 54.72 11.4527 56.198 12.2683C56.8565 12.6312 57.3048 13.2481 57.4757 13.9754C57.4906 14.0348 57.6483 15.4384 57.5635 15.4384C56.0574 15.4384 54.5499 15.4248 53.0425 15.4384C51.4247 15.4528 49.6876 15.795 48.4644 16.9252C47.2366 18.0592 46.9097 19.8427 47.37 21.4131C48.4197 24.996 53.0425 25.5296 56.0024 24.1417C56.2918 24.0063 56.5675 23.8441 56.8322 23.665C56.9899 23.5584 57.1433 23.4434 57.2899 23.3223C57.37 23.2557 57.5367 23.0371 57.6313 23.0137C57.6313 23.5003 57.6023 24.0462 57.9824 24.4258C58.3711 24.8121 59.1353 24.8881 59.6442 24.703C60.4991 24.3922 60.4309 23.5571 60.4288 22.8324ZM57.6023 19.2522C57.0823 21.0854 55.3563 22.0967 53.5318 22.2444C51.9868 22.3701 49.9646 21.8912 49.8955 20.0142C49.8235 18.0626 52.0682 17.8656 53.5684 17.8656H56.8454C56.9293 17.8656 57.6023 17.8231 57.6023 17.8995V19.2522Z" fill="white"/>
<path fill-rule="evenodd" clip-rule="evenodd" d="M71.37 9.53425C71.2715 9.44893 71.3154 9.48673 71.3688 9.53309C70.6571 8.91793 69.4139 9.35691 68.671 9.69953C67.7829 10.1088 66.9164 10.6849 66.2695 11.7582C66.2695 11.3893 66.2695 10.8696 66.2695 10.5011C66.2695 9.82349 65.753 9.25927 65.0617 9.25927C64.4693 9.25927 63.8875 9.28981 63.5619 9.87699C63.3309 10.2935 63.4124 10.8479 63.4124 11.3069C63.4124 12.5423 63.4124 23.3179 63.4124 23.5909C63.4124 24.2639 63.9135 24.8442 64.6095 24.8442C65.262 24.8693 65.9418 24.7585 66.1971 24.0563C66.3015 23.7697 66.2695 23.4512 66.2695 23.1507C66.2695 22.4 66.2687 18.72 66.2687 17.6811C66.2687 16.9636 66.2538 16.2967 66.4285 15.5906C66.8402 13.9238 68.2381 12.6294 69.922 12.2218C70.6597 12.0435 71.5359 12.0779 71.8023 11.1702C72.0014 10.4918 71.8027 9.91137 71.3715 9.53564C71.4366 9.59212 71.5125 9.6579 71.3703 9.53448L71.37 9.53425Z" fill="white"/>
<path fill-rule="evenodd" clip-rule="evenodd" d="M86.9635 15.7623C86.9017 15.2337 86.8019 14.7099 86.6575 14.1991C86.3988 13.2834 85.9905 12.4109 85.4147 11.6595C85.4062 11.6476 85.3964 11.6365 85.387 11.6234L85.3858 11.6207C85.3734 11.6062 85.3628 11.5914 85.3504 11.5769C85.3615 11.5914 85.3722 11.605 85.3833 11.6194C83.413 9.08819 79.536 8.68657 76.7509 9.92158C75.2933 10.569 74.0701 11.7442 73.3379 13.1839C72.5521 14.728 72.3428 16.545 72.5469 18.2585C72.9514 21.6732 75.4744 24.3424 78.8353 24.7708C80.5286 24.986 82.3356 24.7572 83.8699 23.9709C84.2159 23.793 84.5488 23.5871 84.8633 23.3549C85.1902 23.1129 85.5644 22.8539 85.7161 22.4561C86.0149 21.6707 85.3964 20.7779 84.5782 20.7779C84.08 20.7779 83.7608 21.1358 83.3682 21.3901C82.9527 21.6597 82.4997 21.8669 82.0283 22.0108C81.0617 22.3046 79.9903 22.3653 79.0003 22.1632C77.0534 21.7649 75.6577 20.2017 75.2946 18.2331H84.9375C85.6978 18.2331 86.661 18.3664 86.9793 17.4345C87.1507 16.9374 87.0231 16.2743 86.9635 15.7623ZM75.2907 15.7793C75.4777 14.7171 75.9576 13.7249 76.7495 12.9976C78.0263 11.8242 79.954 11.5444 81.5692 12.0513C83.2309 12.5731 84.2538 14.0505 84.437 15.7793H75.2907Z" fill="white"/>
<path fill-rule="evenodd" clip-rule="evenodd" d="M101.053 24.8474C100.938 24.8474 100.823 24.8443 100.711 24.8414L100.667 24.8407C100.568 24.8387 100.471 24.8364 100.377 24.8364H89.7979C89.1501 24.8364 88.573 24.4654 88.362 23.913C88.062 23.1284 88.3902 21.983 88.7972 21.1725C89.6807 19.4119 91.5243 18.2779 93.1511 17.2773L93.7158 16.9321C95.0523 16.1174 96.4345 15.2746 97.6052 14.2009C98.3199 13.5446 100.56 11.2163 99.3666 8.8036C98.6566 7.369 96.9651 6.85784 95.6187 6.85784C94.9667 6.85784 94.3355 6.9725 93.7938 7.18984C93.0262 7.49765 92.4032 8.09459 91.942 8.9645C91.5171 9.76521 91.0828 10.0912 90.4435 10.0912C89.9991 10.0912 89.5797 9.89681 89.292 9.55718C89.0316 9.25064 88.9195 8.86131 88.983 8.489C89.1411 7.49978 89.921 6.5594 90.2488 6.20108C91.4668 4.8701 93.4311 4.10718 95.6388 4.10718C97.6188 4.10718 99.4966 4.72745 100.791 5.8092C102.065 6.87358 102.795 8.48943 102.795 10.2424C102.795 12.394 101.633 14.1563 100.657 15.2555C99.636 16.4061 98.3408 17.4573 96.4592 18.6634C95.9055 19.0188 95.3434 19.3614 94.7817 19.704C94.6228 19.8008 94.4569 19.8976 94.2899 19.9948C93.5415 20.4309 92.768 20.8821 92.2267 21.5478L91.8214 22.045H101.348C102.166 22.045 102.649 22.6177 102.765 23.1849C102.868 23.6884 102.716 24.3919 101.951 24.7154C101.675 24.8317 101.342 24.8474 101.053 24.8474Z" fill="white"/>
</svg>
